<mxfile host="65bd71144e">
    <diagram name="PÃ¡gina-1" id="9_2Igl2WMjHrFPBZQi-Q">
        <mxGraphModel dx="1193" dy="-707" grid="0" gridSize="10" guides="1" tooltips="1" connect="1" arrows="1" fold="1" page="0" pageScale="1" pageWidth="827" pageHeight="1169" background="none" math="0" shadow="0">
            <root>
                <mxCell id="0"/>
                <mxCell id="1" parent="0"/>
                <mxCell id="2" style="edgeStyle=orthogonalEdgeStyle;rounded=0;orthogonalLoop=1;jettySize=auto;html=1;exitX=1;exitY=0.5;exitDx=0;exitDy=0;" parent="1" source="6" target="17" edge="1">
                    <mxGeometry relative="1" as="geometry"/>
                </mxCell>
                <mxCell id="3" value="Produto" style="swimlane;fontStyle=1;childLayout=stackLayout;horizontal=1;startSize=30;horizontalStack=0;resizeParent=1;resizeParentMax=0;resizeLast=0;collapsible=1;marginBottom=0;whiteSpace=wrap;html=1;fillColor=#d5e8d4;strokeColor=#82b366;labelBackgroundColor=none;rounded=1;fontSize=14;strokeWidth=2;" parent="1" vertex="1">
                    <mxGeometry x="129" y="1261" width="184" height="392" as="geometry"/>
                </mxCell>
                <mxCell id="4" value="id: number" style="text;strokeColor=#006EAF;fillColor=#1ba1e2;align=left;verticalAlign=middle;spacingLeft=4;spacingRight=4;overflow=hidden;points=[[0,0.5],[1,0.5]];portConstraint=eastwest;rotatable=0;whiteSpace=wrap;html=1;fontColor=#FFFFFF;fontStyle=1;labelBackgroundColor=none;labelBorderColor=none;rounded=0;" parent="3" vertex="1">
                    <mxGeometry y="30" width="184" height="30" as="geometry"/>
                </mxCell>
                <mxCell id="5" value="codigo: string&lt;br&gt;" style="text;strokeColor=#006EAF;fillColor=#1ba1e2;align=left;verticalAlign=middle;spacingLeft=4;spacingRight=4;overflow=hidden;points=[[0,0.5],[1,0.5]];portConstraint=eastwest;rotatable=0;whiteSpace=wrap;html=1;fontColor=#FFFFFF;fontStyle=1;labelBackgroundColor=none;labelBorderColor=none;rounded=0;" parent="3" vertex="1">
                    <mxGeometry y="60" width="184" height="31" as="geometry"/>
                </mxCell>
                <mxCell id="6" value="tipoProduto: FK" style="text;strokeColor=#006EAF;fillColor=#1ba1e2;align=left;verticalAlign=middle;spacingLeft=4;spacingRight=4;overflow=hidden;points=[[0,0.5],[1,0.5]];portConstraint=eastwest;rotatable=0;whiteSpace=wrap;html=1;fontColor=#FFFFFF;fontStyle=1;labelBackgroundColor=none;labelBorderColor=none;rounded=0;" parent="3" vertex="1">
                    <mxGeometry y="91" width="184" height="31" as="geometry"/>
                </mxCell>
                <mxCell id="7" value="nome: string" style="text;strokeColor=#006EAF;fillColor=#1ba1e2;align=left;verticalAlign=middle;spacingLeft=4;spacingRight=4;overflow=hidden;points=[[0,0.5],[1,0.5]];portConstraint=eastwest;rotatable=0;whiteSpace=wrap;html=1;fontColor=#FFFFFF;fontStyle=1;labelBackgroundColor=none;labelBorderColor=none;rounded=0;" parent="3" vertex="1">
                    <mxGeometry y="122" width="184" height="30" as="geometry"/>
                </mxCell>
                <mxCell id="8" value="descricao: string" style="text;strokeColor=#006EAF;fillColor=#1ba1e2;align=left;verticalAlign=middle;spacingLeft=4;spacingRight=4;overflow=hidden;points=[[0,0.5],[1,0.5]];portConstraint=eastwest;rotatable=0;whiteSpace=wrap;html=1;fontColor=#FFFFFF;fontStyle=1;labelBackgroundColor=none;labelBorderColor=none;rounded=0;" parent="3" vertex="1">
                    <mxGeometry y="152" width="184" height="30" as="geometry"/>
                </mxCell>
                <mxCell id="9" value="quantidade: number" style="text;strokeColor=#006EAF;fillColor=#1ba1e2;align=left;verticalAlign=middle;spacingLeft=4;spacingRight=4;overflow=hidden;points=[[0,0.5],[1,0.5]];portConstraint=eastwest;rotatable=0;whiteSpace=wrap;html=1;fontColor=#FFFFFF;fontStyle=1;labelBackgroundColor=none;labelBorderColor=none;rounded=0;" parent="3" vertex="1">
                    <mxGeometry y="182" width="184" height="30" as="geometry"/>
                </mxCell>
                <mxCell id="10" value="precoEntrada:&amp;nbsp; float" style="text;strokeColor=#006EAF;fillColor=#1ba1e2;align=left;verticalAlign=middle;spacingLeft=4;spacingRight=4;overflow=hidden;points=[[0,0.5],[1,0.5]];portConstraint=eastwest;rotatable=0;whiteSpace=wrap;html=1;fontColor=#FFFFFF;fontStyle=1;labelBackgroundColor=none;labelBorderColor=none;rounded=0;" parent="3" vertex="1">
                    <mxGeometry y="212" width="184" height="30" as="geometry"/>
                </mxCell>
                <mxCell id="11" value="precoSaida:&amp;nbsp; float" style="text;strokeColor=#006EAF;fillColor=#1ba1e2;align=left;verticalAlign=middle;spacingLeft=4;spacingRight=4;overflow=hidden;points=[[0,0.5],[1,0.5]];portConstraint=eastwest;rotatable=0;whiteSpace=wrap;html=1;fontColor=#FFFFFF;fontStyle=1;labelBackgroundColor=none;labelBorderColor=none;rounded=0;" parent="3" vertex="1">
                    <mxGeometry y="242" width="184" height="30" as="geometry"/>
                </mxCell>
                <mxCell id="12" value="dataCadastro: date" style="text;strokeColor=#006EAF;fillColor=#1ba1e2;align=left;verticalAlign=middle;spacingLeft=4;spacingRight=4;overflow=hidden;points=[[0,0.5],[1,0.5]];portConstraint=eastwest;rotatable=0;whiteSpace=wrap;html=1;fontColor=#FFFFFF;fontStyle=1;labelBackgroundColor=none;labelBorderColor=none;rounded=0;" parent="3" vertex="1">
                    <mxGeometry y="272" width="184" height="30" as="geometry"/>
                </mxCell>
                <mxCell id="13" value="dataAtualizacao: date&lt;span style=&quot;white-space: pre;&quot;&gt;&#9;&lt;/span&gt;" style="text;strokeColor=#006EAF;fillColor=#1ba1e2;align=left;verticalAlign=middle;spacingLeft=4;spacingRight=4;overflow=hidden;points=[[0,0.5],[1,0.5]];portConstraint=eastwest;rotatable=0;whiteSpace=wrap;html=1;fontColor=#FFFFFF;fontStyle=1;labelBackgroundColor=none;labelBorderColor=none;rounded=0;" parent="3" vertex="1">
                    <mxGeometry y="302" width="184" height="30" as="geometry"/>
                </mxCell>
                <mxCell id="14" value="imagemProduto: string" style="text;strokeColor=#006EAF;fillColor=#1ba1e2;align=left;verticalAlign=middle;spacingLeft=4;spacingRight=4;overflow=hidden;points=[[0,0.5],[1,0.5]];portConstraint=eastwest;rotatable=0;whiteSpace=wrap;html=1;fontColor=#FFFFFF;fontStyle=1;labelBackgroundColor=none;labelBorderColor=none;rounded=0;" parent="3" vertex="1">
                    <mxGeometry y="332" width="184" height="30" as="geometry"/>
                </mxCell>
                <mxCell id="15" value="ativo: boolean" style="text;strokeColor=#006EAF;fillColor=#1ba1e2;align=left;verticalAlign=middle;spacingLeft=4;spacingRight=4;overflow=hidden;points=[[0,0.5],[1,0.5]];portConstraint=eastwest;rotatable=0;whiteSpace=wrap;html=1;fontColor=#FFFFFF;fontStyle=1;labelBackgroundColor=none;labelBorderColor=none;rounded=0;" parent="3" vertex="1">
                    <mxGeometry y="362" width="184" height="30" as="geometry"/>
                </mxCell>
                <mxCell id="16" value="Tipo produto" style="swimlane;fontStyle=1;childLayout=stackLayout;horizontal=1;startSize=30;horizontalStack=0;resizeParent=1;resizeParentMax=0;resizeLast=0;collapsible=1;marginBottom=0;whiteSpace=wrap;html=1;fillColor=#d5e8d4;strokeColor=#82b366;labelBackgroundColor=none;rounded=1;fontSize=14;strokeWidth=2;" parent="1" vertex="1">
                    <mxGeometry x="542" y="1247" width="184" height="212" as="geometry"/>
                </mxCell>
                <mxCell id="17" value="id: number" style="text;strokeColor=#006EAF;fillColor=#1ba1e2;align=left;verticalAlign=middle;spacingLeft=4;spacingRight=4;overflow=hidden;points=[[0,0.5],[1,0.5]];portConstraint=eastwest;rotatable=0;whiteSpace=wrap;html=1;fontColor=#FFFFFF;fontStyle=1;labelBackgroundColor=none;labelBorderColor=none;rounded=0;" parent="16" vertex="1">
                    <mxGeometry y="30" width="184" height="30" as="geometry"/>
                </mxCell>
                <mxCell id="18" value="codigo: string&lt;br&gt;" style="text;strokeColor=#006EAF;fillColor=#1ba1e2;align=left;verticalAlign=middle;spacingLeft=4;spacingRight=4;overflow=hidden;points=[[0,0.5],[1,0.5]];portConstraint=eastwest;rotatable=0;whiteSpace=wrap;html=1;fontColor=#FFFFFF;fontStyle=1;labelBackgroundColor=none;labelBorderColor=none;rounded=0;" parent="16" vertex="1">
                    <mxGeometry y="60" width="184" height="31" as="geometry"/>
                </mxCell>
                <mxCell id="19" value="descricao: string" style="text;strokeColor=#006EAF;fillColor=#1ba1e2;align=left;verticalAlign=middle;spacingLeft=4;spacingRight=4;overflow=hidden;points=[[0,0.5],[1,0.5]];portConstraint=eastwest;rotatable=0;whiteSpace=wrap;html=1;fontColor=#FFFFFF;fontStyle=1;labelBackgroundColor=none;labelBorderColor=none;rounded=0;" parent="16" vertex="1">
                    <mxGeometry y="91" width="184" height="31" as="geometry"/>
                </mxCell>
                <mxCell id="20" value="dataCadastro: date" style="text;strokeColor=#006EAF;fillColor=#1ba1e2;align=left;verticalAlign=middle;spacingLeft=4;spacingRight=4;overflow=hidden;points=[[0,0.5],[1,0.5]];portConstraint=eastwest;rotatable=0;whiteSpace=wrap;html=1;fontColor=#FFFFFF;fontStyle=1;labelBackgroundColor=none;labelBorderColor=none;rounded=0;" parent="16" vertex="1">
                    <mxGeometry y="122" width="184" height="30" as="geometry"/>
                </mxCell>
                <mxCell id="21" value="dataAtualizacao: date&lt;span style=&quot;white-space: pre;&quot;&gt;&#9;&lt;/span&gt;" style="text;strokeColor=#006EAF;fillColor=#1ba1e2;align=left;verticalAlign=middle;spacingLeft=4;spacingRight=4;overflow=hidden;points=[[0,0.5],[1,0.5]];portConstraint=eastwest;rotatable=0;whiteSpace=wrap;html=1;fontColor=#FFFFFF;fontStyle=1;labelBackgroundColor=none;labelBorderColor=none;rounded=0;" parent="16" vertex="1">
                    <mxGeometry y="152" width="184" height="30" as="geometry"/>
                </mxCell>
                <mxCell id="22" value="ativo: boolean" style="text;strokeColor=#006EAF;fillColor=#1ba1e2;align=left;verticalAlign=middle;spacingLeft=4;spacingRight=4;overflow=hidden;points=[[0,0.5],[1,0.5]];portConstraint=eastwest;rotatable=0;whiteSpace=wrap;html=1;fontColor=#FFFFFF;fontStyle=1;labelBackgroundColor=none;labelBorderColor=none;rounded=0;" parent="16" vertex="1">
                    <mxGeometry y="182" width="184" height="30" as="geometry"/>
                </mxCell>
                <mxCell id="23" value="Campo" style="swimlane;fontStyle=1;childLayout=stackLayout;horizontal=1;startSize=30;horizontalStack=0;resizeParent=1;resizeParentMax=0;resizeLast=0;collapsible=1;marginBottom=0;whiteSpace=wrap;html=1;fillColor=#d5e8d4;strokeColor=#82b366;labelBackgroundColor=none;rounded=1;fontSize=14;strokeWidth=2;" parent="1" vertex="1">
                    <mxGeometry x="477" y="1546" width="271" height="214" as="geometry"/>
                </mxCell>
                <mxCell id="24" value="id: number" style="text;strokeColor=#006EAF;fillColor=#1ba1e2;align=left;verticalAlign=middle;spacingLeft=4;spacingRight=4;overflow=hidden;points=[[0,0.5],[1,0.5]];portConstraint=eastwest;rotatable=0;whiteSpace=wrap;html=1;fontColor=#FFFFFF;fontStyle=1;labelBackgroundColor=none;labelBorderColor=none;rounded=0;" parent="23" vertex="1">
                    <mxGeometry y="30" width="271" height="30" as="geometry"/>
                </mxCell>
                <mxCell id="25" value="tipo: enum (text, number, date, boolean)" style="text;strokeColor=#006EAF;fillColor=#1ba1e2;align=left;verticalAlign=middle;spacingLeft=4;spacingRight=4;overflow=hidden;points=[[0,0.5],[1,0.5]];portConstraint=eastwest;rotatable=0;whiteSpace=wrap;html=1;fontColor=#FFFFFF;fontStyle=1;labelBackgroundColor=none;labelBorderColor=none;rounded=0;" parent="23" vertex="1">
                    <mxGeometry y="60" width="271" height="31" as="geometry"/>
                </mxCell>
                <mxCell id="26" value="obrigatorio: boolean" style="text;strokeColor=#006EAF;fillColor=#1ba1e2;align=left;verticalAlign=middle;spacingLeft=4;spacingRight=4;overflow=hidden;points=[[0,0.5],[1,0.5]];portConstraint=eastwest;rotatable=0;whiteSpace=wrap;html=1;fontColor=#FFFFFF;fontStyle=1;labelBackgroundColor=none;labelBorderColor=none;rounded=0;" parent="23" vertex="1">
                    <mxGeometry y="91" width="271" height="31" as="geometry"/>
                </mxCell>
                <mxCell id="27" value="nome: string" style="text;strokeColor=#006EAF;fillColor=#1ba1e2;align=left;verticalAlign=middle;spacingLeft=4;spacingRight=4;overflow=hidden;points=[[0,0.5],[1,0.5]];portConstraint=eastwest;rotatable=0;whiteSpace=wrap;html=1;fontColor=#FFFFFF;fontStyle=1;labelBackgroundColor=none;labelBorderColor=none;rounded=0;" parent="23" vertex="1">
                    <mxGeometry y="122" width="271" height="31" as="geometry"/>
                </mxCell>
                <mxCell id="28" value="ordemCadastro: number" style="text;strokeColor=#006EAF;fillColor=#1ba1e2;align=left;verticalAlign=middle;spacingLeft=4;spacingRight=4;overflow=hidden;points=[[0,0.5],[1,0.5]];portConstraint=eastwest;rotatable=0;whiteSpace=wrap;html=1;fontColor=#FFFFFF;fontStyle=1;labelBackgroundColor=none;labelBorderColor=none;rounded=0;" parent="23" vertex="1">
                    <mxGeometry y="153" width="271" height="31" as="geometry"/>
                </mxCell>
                <mxCell id="29" value="tipoProduto: FK" style="text;strokeColor=#006EAF;fillColor=#1ba1e2;align=left;verticalAlign=middle;spacingLeft=4;spacingRight=4;overflow=hidden;points=[[0,0.5],[1,0.5]];portConstraint=eastwest;rotatable=0;whiteSpace=wrap;html=1;fontColor=#FFFFFF;fontStyle=1;labelBackgroundColor=none;labelBorderColor=none;rounded=0;" parent="23" vertex="1">
                    <mxGeometry y="184" width="271" height="30" as="geometry"/>
                </mxCell>
                <mxCell id="30" value="ValorCampo" style="swimlane;fontStyle=1;childLayout=stackLayout;horizontal=1;startSize=30;horizontalStack=0;resizeParent=1;resizeParentMax=0;resizeLast=0;collapsible=1;marginBottom=0;whiteSpace=wrap;html=1;fillColor=#d5e8d4;strokeColor=#82b366;labelBackgroundColor=none;rounded=1;fontSize=14;strokeWidth=2;" parent="1" vertex="1">
                    <mxGeometry x="126" y="1750" width="271" height="153" as="geometry"/>
                </mxCell>
                <mxCell id="31" value="id: number" style="text;strokeColor=#006EAF;fillColor=#1ba1e2;align=left;verticalAlign=middle;spacingLeft=4;spacingRight=4;overflow=hidden;points=[[0,0.5],[1,0.5]];portConstraint=eastwest;rotatable=0;whiteSpace=wrap;html=1;fontColor=#FFFFFF;fontStyle=1;labelBackgroundColor=none;labelBorderColor=none;rounded=0;" parent="30" vertex="1">
                    <mxGeometry y="30" width="271" height="30" as="geometry"/>
                </mxCell>
                <mxCell id="32" value="campo: FK" style="text;strokeColor=#006EAF;fillColor=#1ba1e2;align=left;verticalAlign=middle;spacingLeft=4;spacingRight=4;overflow=hidden;points=[[0,0.5],[1,0.5]];portConstraint=eastwest;rotatable=0;whiteSpace=wrap;html=1;fontColor=#FFFFFF;fontStyle=1;labelBackgroundColor=none;labelBorderColor=none;rounded=0;" parent="30" vertex="1">
                    <mxGeometry y="60" width="271" height="31" as="geometry"/>
                </mxCell>
                <mxCell id="33" value="valor: string" style="text;strokeColor=#006EAF;fillColor=#1ba1e2;align=left;verticalAlign=middle;spacingLeft=4;spacingRight=4;overflow=hidden;points=[[0,0.5],[1,0.5]];portConstraint=eastwest;rotatable=0;whiteSpace=wrap;html=1;fontColor=#FFFFFF;fontStyle=1;labelBackgroundColor=none;labelBorderColor=none;rounded=0;" parent="30" vertex="1">
                    <mxGeometry y="91" width="271" height="31" as="geometry"/>
                </mxCell>
                <mxCell id="34" value="produto: FK" style="text;strokeColor=#006EAF;fillColor=#1ba1e2;align=left;verticalAlign=middle;spacingLeft=4;spacingRight=4;overflow=hidden;points=[[0,0.5],[1,0.5]];portConstraint=eastwest;rotatable=0;whiteSpace=wrap;html=1;fontColor=#FFFFFF;fontStyle=1;labelBackgroundColor=none;labelBorderColor=none;rounded=0;" parent="30" vertex="1">
                    <mxGeometry y="122" width="271" height="31" as="geometry"/>
                </mxCell>
                <mxCell id="35" style="edgeStyle=orthogonalEdgeStyle;rounded=0;orthogonalLoop=1;jettySize=auto;html=1;entryX=0;entryY=0.5;entryDx=0;entryDy=0;" parent="1" source="32" target="24" edge="1">
                    <mxGeometry relative="1" as="geometry"/>
                </mxCell>
                <mxCell id="36" style="edgeStyle=orthogonalEdgeStyle;rounded=0;orthogonalLoop=1;jettySize=auto;html=1;entryX=0;entryY=0.5;entryDx=0;entryDy=0;" parent="1" source="34" target="4" edge="1">
                    <mxGeometry relative="1" as="geometry">
                        <Array as="points">
                            <mxPoint x="100" y="1888"/>
                            <mxPoint x="100" y="1865"/>
                            <mxPoint x="65" y="1865"/>
                            <mxPoint x="65" y="1302"/>
                            <mxPoint x="129" y="1302"/>
                        </Array>
                    </mxGeometry>
                </mxCell>
                <mxCell id="37" style="edgeStyle=orthogonalEdgeStyle;rounded=0;orthogonalLoop=1;jettySize=auto;html=1;entryX=1;entryY=0.327;entryDx=0;entryDy=0;entryPerimeter=0;exitX=1;exitY=0.5;exitDx=0;exitDy=0;" parent="1" source="29" target="17" edge="1">
                    <mxGeometry relative="1" as="geometry">
                        <Array as="points">
                            <mxPoint x="782" y="1745"/>
                            <mxPoint x="782" y="1287"/>
                        </Array>
                    </mxGeometry>
                </mxCell>
            </root>
        </mxGraphModel>
    </diagram>
</mxfile>